<svg id="Layer_1" data-name="Layer 1" xmlns="http://www.w3.org/2000/svg" viewBox="0 0 24 24"><defs><style>.st0{fill:#80cbc4;enable-background:new}.st1{fill:#2ecc71}</style></defs><path class="st0" d="M20.8 5.25H12L9.8 3H3.2A2.23 2.23 0 0 0 1 5.25v13.5A2.23 2.23 0 0 0 3.2 21h17.6a2.23 2.23 0 0 0 2.2-2.25V7.5a2.23 2.23 0 0 0-2.2-2.25zm0 13.5H3.2V7.5h17.6z"/><path class="st1" d="M13 23.91h7v-8h-7zm1-7h5v6h-5z"/><path class="st1" d="M15 14.91h6v7h1v-8h-7v1z"/><path class="st1" d="M17 11.91v1h6v7h1v-8h-7z"/></svg>