<svg id="Layer_1" data-name="Layer 1" xmlns="http://www.w3.org/2000/svg" viewBox="0 0 24 24"><defs><style>.st0{fill:#64FFDA;enable-background:new}.st1{fill:#b8e15e}</style></defs><path class="st0" d="M20.8 5.25H12L9.8 3H3.2A2.23 2.23 0 0 0 1 5.25v13.5A2.23 2.23 0 0 0 3.2 21h17.6a2.23 2.23 0 0 0 2.2-2.25V7.5a2.23 2.23 0 0 0-2.2-2.25zm0 13.5H3.2V7.5h17.6z"/><path class="st1" d="M15.32 18.79l1.74 2.09 2.43-3.13 3.12 4.17h-9.72zM24 22.61v-9.72a1.39 1.39 0 0 0-1.39-1.39h-9.72a1.4 1.4 0 0 0-1.39 1.39v9.72A1.39 1.39 0 0 0 12.89 24h9.72A1.39 1.39 0 0 0 24 22.61z"/></svg>