<svg id="Layer_1" data-name="Layer 1" xmlns="http://www.w3.org/2000/svg" viewBox="0 0 24 24"><defs><style>.st0{fill:#4A616C;enable-background:new}.st1{fill:#aa759f}</style></defs><path class="st0" d="M9.8 3L12 5.2h8.8A2.22 2.22 0 0 1 23 7.4v11.2a2.22 2.22 0 0 1-2.2 2.2H3.2a2 2 0 0 1-2.2-2V5.2A2.22 2.22 0 0 1 3.2 3z"/><path class="st1" d="M23.55 13.12h-9.07a.46.46 0 0 0-.45.46v10a.45.45 0 0 0 .45.45h9.07a.45.45 0 0 0 .45-.45v-10a.46.46 0 0 0-.45-.46zm-5.25 6.8l-.64.64-2-2 2-2 .64.64-1.36 1.36zm2.08.64l-.65-.64 1.36-1.36-1.36-1.36.65-.64 2 2z"/></svg>