<svg id="Layer_1" data-name="Layer 1" xmlns="http://www.w3.org/2000/svg" viewBox="0 0 24 24"><defs><style>.st0{fill:#80CBC4;enable-background:new}.st1{fill:#ffcb6b}</style></defs><path class="st0" d="M20.8 5.25H12L9.8 3H3.2A2.23 2.23 0 0 0 1 5.25v13.5A2.23 2.23 0 0 0 3.2 21h17.6a2.23 2.23 0 0 0 2.2-2.25V7.5a2.23 2.23 0 0 0-2.2-2.25zm0 13.5H3.2V7.5h17.6z"/><path class="st1" d="M21.08 10.36l-6 5.51-3.35-2.53-1.38.81 3.3 3-3.3 3 1.38.81 3.35-2.52 6 5.5L24 22.58v-10.8zm0 3.62v6.4l-4.25-3.2z"/></svg>