<svg id="Layer_1" data-name="Layer 1" xmlns="http://www.w3.org/2000/svg" viewBox="0 0 24 24"><defs><style>.st0{fill:#616161;enable-background:new}.st1{fill:#aa759f}</style></defs><path class="st0" d="M20.8 5.25H12L9.8 3H3.2A2.23 2.23 0 0 0 1 5.25v13.5A2.23 2.23 0 0 0 3.2 21h17.6a2.23 2.23 0 0 0 2.2-2.25V7.5a2.23 2.23 0 0 0-2.2-2.25zm0 13.5H3.2V7.5h17.6z"/><path class="st1" d="M23.55 13.12h-9.07a.46.46 0 0 0-.45.46v10a.45.45 0 0 0 .45.45h9.07a.45.45 0 0 0 .45-.45v-10a.46.46 0 0 0-.45-.46zm-5.25 6.8l-.64.64-2-2 2-2 .64.64-1.36 1.36zm2.08.64l-.65-.64 1.36-1.36-1.36-1.36.65-.64 2 2z"/></svg>